<svg width="187" height="44" viewBox="0 0 187 44" fill="none" xmlns="http://www.w3.org/2000/svg">
<path d="M24.5905 40.121C24.2709 40.4387 24.0532 40.8435 23.9649 41.2843C23.8766 41.725 23.9218 42.1819 24.0946 42.5971C24.2674 43.0124 24.5602 43.3673 24.9358 43.617C25.3115 43.8667 25.7532 44 26.205 44C26.6568 44 27.0985 43.8667 27.4742 43.617C27.8498 43.3673 28.1426 43.0124 28.3154 42.5971C28.4882 42.1819 28.5333 41.725 28.4451 41.2843C28.3568 40.8435 28.1391 40.4387 27.8195 40.121C27.6075 39.91 27.3559 39.7426 27.0788 39.6284C26.8018 39.5142 26.5049 39.4554 26.205 39.4554C25.9051 39.4554 25.6082 39.5142 25.3312 39.6284C25.0541 39.7426 24.8025 39.91 24.5905 40.121ZM30.4921 34.251C30.1731 34.5686 29.956 34.9731 29.8681 35.4133C29.7802 35.8536 29.8255 36.3099 29.9983 36.7245C30.1711 37.1392 30.4636 37.4936 30.8389 37.7429C31.2141 37.9922 31.6553 38.1253 32.1066 38.1253C32.5578 38.1253 32.999 37.9922 33.3742 37.7429C33.7495 37.4936 34.042 37.1392 34.2148 36.7245C34.3876 36.3099 34.4329 35.8536 34.345 35.4133C34.2571 34.9731 34.04 34.5686 33.721 34.251C33.2927 33.8254 32.712 33.5862 32.1066 33.5862C31.5011 33.5862 30.9204 33.8254 30.4921 34.251ZM45.1786 19.643L36.2863 28.4878C36.0543 28.7185 35.8751 28.9962 35.7607 29.302C35.6463 29.6077 35.5995 29.9344 35.6234 30.2597C35.6473 30.5851 35.7414 30.9015 35.8992 31.1875C36.057 31.4735 36.2749 31.7223 36.5381 31.917C37.4713 32.6161 38.8144 32.3986 39.6402 31.5772L42.2425 28.9888C43.4546 27.783 44.3548 26.3028 44.8658 24.6751C45.3769 23.0474 45.4835 21.3207 45.1767 19.643H45.1786Z" fill="#FF3E00"/>
<path d="M15.7958 37.389C15.4762 37.7066 15.2585 38.1114 15.1702 38.5522C15.082 38.9929 15.1271 39.4498 15.2999 39.865C15.4727 40.2803 15.7655 40.6352 16.1412 40.8849C16.5168 41.1346 16.9585 41.2679 17.4103 41.2679C17.8621 41.2679 18.3038 41.1346 18.6795 40.8849C19.0551 40.6352 19.3479 40.2803 19.5207 39.865C19.6935 39.4498 19.7387 38.9929 19.6504 38.5522C19.5621 38.1114 19.3444 37.7066 19.0248 37.389C18.5965 36.9633 18.0158 36.7242 17.4103 36.7242C16.8048 36.7242 16.2241 36.9633 15.7958 37.389ZM21.6974 31.519C21.3778 31.8366 21.1601 32.2414 21.0718 32.6822C20.9835 33.1229 21.0287 33.5798 21.2015 33.995C21.3743 34.4103 21.6671 34.7652 22.0427 35.0149C22.4184 35.2646 22.86 35.3979 23.3119 35.3979C23.7637 35.3979 24.2054 35.2646 24.581 35.0149C24.9567 34.7652 25.2494 34.4103 25.4223 33.995C25.5951 33.5798 25.6402 33.1229 25.552 32.6822C25.4637 32.2414 25.246 31.8366 24.9264 31.519C24.7145 31.3078 24.463 31.1403 24.186 31.0259C23.9091 30.9115 23.6122 30.8526 23.3123 30.8524C23.0124 30.8522 22.7154 30.9108 22.4383 31.0248C22.1612 31.1389 21.9095 31.3061 21.6974 31.517V31.519ZM42.2406 14.0429C41.6967 13.5043 41.0959 13.0258 40.4485 12.6157L27.4974 25.4975C27.0368 25.9559 26.778 26.5775 26.778 27.2257C26.778 27.8738 27.0368 28.4954 27.4974 28.9539C27.9583 29.412 28.5833 29.6694 29.2349 29.6694C29.8865 29.6694 30.5115 29.412 30.9724 28.9539L43.857 16.1381C43.4083 15.3765 42.8652 14.6739 42.2406 14.0468V14.0429Z" fill="#FF5200"/>
<path d="M27.2181 14.0488L8.36743 32.7986C10.1039 33.1756 11.9079 33.1125 13.6135 32.6151C15.319 32.1177 16.8716 31.2019 18.1285 29.952L36.9811 11.2002C35.2441 10.8229 33.4397 10.886 31.7337 11.3838C30.0277 11.8816 28.4749 12.798 27.2181 14.0488Z" fill="#FF6500"/>
<path d="M20.4207 9.27199C20.101 9.58965 19.8833 9.99446 19.7951 10.4352C19.7068 10.876 19.7519 11.3328 19.9247 11.7481C20.0976 12.1633 20.3903 12.5182 20.766 12.7679C21.1416 13.0177 21.5833 13.151 22.0351 13.151C22.487 13.151 22.9286 13.0177 23.3043 12.7679C23.68 12.5182 23.9727 12.1633 24.1455 11.7481C24.3184 11.3328 24.3635 10.876 24.2752 10.4352C24.1869 9.99446 23.9692 9.58965 23.6496 9.27199C23.4377 9.06098 23.186 8.89359 22.909 8.77938C22.632 8.66517 22.335 8.60638 22.0351 8.60638C21.7353 8.60638 21.4383 8.66517 21.1613 8.77938C20.8843 8.89359 20.6326 9.06098 20.4207 9.27199ZM29.5512 3.40782C29.2318 3.08992 28.8248 2.87337 28.3817 2.78557C27.9386 2.69777 27.4792 2.74266 27.0618 2.91456C26.6443 3.08647 26.2875 3.37766 26.0364 3.7513C25.7854 4.12495 25.6514 4.56426 25.6514 5.01367C25.6514 5.46308 25.7854 5.9024 26.0364 6.27604C26.2875 6.64969 26.6443 6.94088 27.0618 7.11278C27.4792 7.28469 27.9386 7.32958 28.3817 7.24178C28.8248 7.15397 29.2318 6.93743 29.5512 6.61952C29.7633 6.40871 29.9316 6.15838 30.0464 5.88284C30.1613 5.6073 30.2204 5.31195 30.2204 5.01367C30.2204 4.7154 30.1613 4.42005 30.0464 4.14451C29.9316 3.86897 29.7633 3.61863 29.5512 3.40782ZM14.3688 15.041L1.48413 27.8568C1.93344 28.6185 2.47716 29.3211 3.10252 29.9481C3.6464 30.4867 4.24727 30.9652 4.89466 31.3753L17.8457 18.4935C18.2808 18.0299 18.5179 17.4163 18.5067 16.7822C18.4955 16.148 18.237 15.543 17.7857 15.095C17.3344 14.6469 16.7258 14.3907 16.0882 14.3807C15.4506 14.3706 14.8341 14.6074 14.3688 15.041Z" fill="#FF7900"/>
<path d="M11.6356 6.53603C11.3166 6.85357 11.0995 7.25804 11.0116 7.69831C10.9237 8.13857 10.9691 8.59487 11.1419 9.00953C11.3146 9.42418 11.6072 9.77857 11.9824 10.0279C12.3577 10.2772 12.7988 10.4103 13.2501 10.4103C13.7013 10.4103 14.1425 10.2772 14.5177 10.0279C14.893 9.77857 15.1855 9.42418 15.3583 9.00953C15.5311 8.59487 15.5764 8.13857 15.4885 7.69831C15.4006 7.25804 15.1835 6.85357 14.8646 6.53603C14.4363 6.11034 13.8555 5.87122 13.2501 5.87122C12.6446 5.87122 12.0639 6.11034 11.6356 6.53603ZM20.7661 0.666031C20.4467 0.34813 20.0398 0.131582 19.5966 0.0437812C19.1535 -0.04402 18.6942 0.000869779 18.2767 0.172772C17.8592 0.344675 17.5024 0.635867 17.2514 1.00951C17.0003 1.38316 16.8663 1.82247 16.8663 2.27188C16.8663 2.72129 17.0003 3.16061 17.2514 3.53425C17.5024 3.9079 17.8592 4.19909 18.2767 4.37099C18.6942 4.5429 19.1535 4.58779 19.5966 4.49998C20.0398 4.41218 20.4467 4.19564 20.7661 3.87773C21.1927 3.45077 21.4313 2.87277 21.4295 2.27084C21.4276 1.66892 21.1855 1.09236 20.7564 0.667973L20.7661 0.666031ZM5.83359 12.2973L3.10048 15.0158C1.88936 16.2222 0.990286 17.7026 0.480286 19.3303C-0.0297139 20.958 -0.135443 22.6844 0.172155 24.3616L9.06451 15.5168C9.27704 15.3057 9.44571 15.0552 9.56087 14.7793C9.67604 14.5035 9.73546 14.2078 9.73573 13.9091C9.736 13.6104 9.67712 13.3146 9.56246 13.0385C9.44779 12.7625 9.27959 12.5116 9.06744 12.3002C8.8553 12.0888 8.60337 11.921 8.32604 11.8065C8.04871 11.6919 7.75141 11.6328 7.45112 11.6326C7.15083 11.6323 6.85343 11.6909 6.57589 11.8049C6.29835 11.919 6.04612 12.0863 5.83359 12.2973Z" fill="#FF8C00"/>
<path d="M57.6865 29.1306L59.2346 25.8101C60.6676 26.7286 62.8423 27.3519 64.8102 27.3519C66.9576 27.3519 67.7619 26.7888 67.7619 25.8995C67.7619 23.2897 58.0711 25.9577 58.0711 19.5828C58.0711 16.5576 60.814 14.4235 65.4895 14.4235C67.6955 14.4235 70.1417 14.9265 71.6625 15.8158L70.1104 19.1168C68.7011 18.3242 67.1066 17.9149 65.4876 17.9304C63.4026 17.9304 62.5065 18.5828 62.5065 19.412C62.5065 22.1402 72.1974 19.5013 72.1974 25.7868C72.1974 28.7539 69.4233 30.8588 64.6228 30.8588C61.9209 30.851 59.178 30.1092 57.6865 29.1306Z" fill="#143440"/>
<path d="M90.7004 23.9402H78.5635C79.0106 25.9266 80.7109 27.1422 83.1532 27.1422C84.8555 27.1422 86.0815 26.6393 87.1786 25.6004L89.656 28.2626C88.1665 29.9519 85.9292 30.8432 83.036 30.8432C77.4917 30.8432 73.884 27.3733 73.884 22.6295C73.884 17.8547 77.5523 14.4158 82.4406 14.4158C87.1494 14.4158 90.7863 17.5595 90.7863 22.6897C90.7863 23.0528 90.7278 23.5557 90.7004 23.9402ZM78.5069 21.2411H86.4056C86.0776 19.2256 84.5588 17.9207 82.4699 17.9207C80.381 17.9207 78.8329 19.1964 78.5049 21.2431L78.5069 21.2411Z" fill="#143440"/>
<path d="M107.642 21.5091V30.6141H103.288V28.6257C102.424 30.0801 100.751 30.851 98.4079 30.851C94.6518 30.851 92.4146 28.7752 92.4146 26.0179C92.4146 23.2004 94.4117 21.2431 99.302 21.2431H102.999C102.999 19.2566 101.807 18.1013 99.302 18.1013C97.6035 18.1013 95.8446 18.6644 94.683 19.5828L93.0119 16.3498C94.7689 15.1051 97.3654 14.4235 99.9286 14.4235C104.809 14.4216 107.642 16.676 107.642 21.5091ZM102.999 25.5713V23.9402H99.7998C97.625 23.9402 96.9378 24.7422 96.9378 25.8082C96.9378 26.9733 97.914 27.7344 99.5616 27.7344C101.114 27.7364 102.453 27.0257 102.999 25.5713Z" fill="#143440"/>
<path d="M120.021 14.4216V18.6935C119.63 18.6624 119.336 18.6353 118.976 18.6353C116.413 18.6353 114.713 20.0275 114.713 23.0819V30.6141H110.064V14.6585H114.508V16.7634C115.64 15.2236 117.547 14.4216 120.021 14.4216Z" fill="#143440"/>
<path d="M120.864 22.6314C120.864 17.8275 124.591 14.4177 129.807 14.4177C133.177 14.4177 135.83 15.8702 136.993 18.4799L133.386 20.4081C132.521 18.8955 131.238 18.2139 129.778 18.2139C127.424 18.2139 125.573 19.845 125.573 22.6334C125.573 25.4218 127.424 27.0529 129.778 27.0529C131.24 27.0529 132.521 26.4004 133.386 24.8587L136.993 26.816C135.822 29.3655 133.177 30.849 129.807 30.849C124.591 30.851 120.864 27.4412 120.864 22.6314Z" fill="#143440"/>
<path d="M155.368 21.48V30.6063H150.715V22.1907C150.715 19.61 149.523 18.4255 147.465 18.4255C145.23 18.4255 143.619 19.7848 143.619 22.7246V30.6122H138.969V8.60985H143.621V16.3187C144.874 15.0721 146.663 14.4216 148.718 14.4216C152.506 14.4216 155.368 16.6119 155.368 21.48Z" fill="#143440"/>
<path d="M158.811 30.3675C158.659 30.2144 158.539 30.0323 158.46 29.8321C158.38 29.6319 158.341 29.4177 158.347 29.2024C158.341 28.9897 158.379 28.778 158.459 28.5806C158.539 28.3832 158.659 28.2043 158.811 28.0548C158.956 27.905 159.131 27.7865 159.324 27.7067C159.517 27.6269 159.725 27.5874 159.934 27.5907C160.145 27.5884 160.355 27.6283 160.55 27.708C160.746 27.7878 160.923 27.9057 161.072 28.0548C161.228 28.2022 161.352 28.3804 161.434 28.5781C161.517 28.7757 161.557 28.9884 161.552 29.2024C161.557 29.419 161.516 29.6341 161.434 29.8345C161.351 30.0349 161.228 30.2163 161.072 30.3675C160.925 30.5199 160.748 30.6409 160.552 30.723C160.357 30.8051 160.146 30.8467 159.934 30.8452C159.724 30.8482 159.515 30.8072 159.322 30.725C159.128 30.6427 158.954 30.5209 158.811 30.3675Z" fill="#143440"/>
<path d="M164.781 11.1322C164.636 10.9938 164.521 10.8273 164.443 10.6429C164.365 10.4586 164.326 10.2603 164.328 10.0604C164.328 9.86471 164.368 9.67111 164.446 9.49146C164.524 9.31181 164.638 9.1499 164.781 9.01567C164.925 8.86976 165.098 8.75482 165.288 8.67799C165.479 8.60116 165.683 8.56409 165.888 8.56906C166.093 8.56381 166.297 8.59942 166.488 8.67379C166.679 8.74816 166.852 8.85979 166.999 9.00208C167.142 9.13236 167.256 9.29116 167.334 9.46814C167.411 9.64511 167.45 9.83631 167.448 10.0293C167.449 10.337 167.358 10.6381 167.187 10.8944C167.016 11.1507 166.772 11.3506 166.486 11.4688C166.2 11.5869 165.886 11.618 165.582 11.5581C165.279 11.4982 165 11.3499 164.781 11.1322ZM164.809 15.0158H166.937V30.6995H164.809V15.0099V15.0158Z" fill="#143440"/>
<path d="M174.451 29.816C173.247 29.1475 172.251 28.1619 171.573 26.9674C170.885 25.704 170.525 24.2897 170.525 22.8528C170.525 21.4159 170.885 20.0016 171.573 18.7382C172.249 17.546 173.246 16.5644 174.451 15.9032C175.716 15.2376 177.126 14.8898 178.557 14.8898C179.989 14.8898 181.398 15.2376 182.664 15.9032C183.866 16.5624 184.859 17.5439 185.529 18.7362C186.208 20.0028 186.562 21.4158 186.562 22.8509C186.562 24.2859 186.208 25.6989 185.529 26.9655C184.861 28.1605 183.873 29.1474 182.673 29.816C181.41 30.4933 179.997 30.8478 178.562 30.8478C177.127 30.8478 175.714 30.4933 174.451 29.816ZM181.572 28.2063C182.46 27.6996 183.183 26.9493 183.653 26.0451C184.146 25.0525 184.402 23.9606 184.402 22.8538C184.402 21.747 184.146 20.655 183.653 19.6625C183.183 18.7582 182.46 18.0079 181.572 17.5013C180.647 17.0026 179.611 16.7415 178.559 16.7415C177.507 16.7415 176.471 17.0026 175.546 17.5013C174.655 18.0094 173.928 18.7589 173.449 19.6625C172.944 20.6513 172.681 21.7447 172.681 22.8538C172.681 23.9628 172.944 25.0562 173.449 26.0451C173.928 26.9486 174.655 27.6982 175.546 28.2063C176.472 28.7063 177.51 28.9681 178.564 28.9677C179.618 28.9674 180.656 28.705 181.582 28.2043L181.572 28.2063Z" fill="#143440"/>
</svg>
